# xmcd
#
# Track frame offsets: 
#        150
#        8962
#        21383
#        34525
#        46461
#        60788
#        73097
#        100318
#        113005
#        125804
#        138162
#        149205
#        162413
#        178039
#        192392
#        206104
#
# Disc length: 2969 seconds
#
# Revision: 0
# Processed by: cddbd v1.5.2PL0 Copyright (c) Steve Scherf et al.
# Submitted via: ExactAudioCopy v1.3
#
DISCID=f00b9710
DTITLE=Various Artist - blues and the city 2
DYEAR=1900
DGENRE=Blues
TTITLE0=Ray Charles, Hit The Road Jack
TTITLE1=Jimmy Reed, My First Plea
TTITLE2=Dinah Washington, Baby Get Lost
TTITLE3=Chris Barber's Jazz Band, New Orlean Blues
TTITLE4=Champion Jack Dupree, Bad Life
TTITLE5=Bobby Bland, I Pitty The Fool
TTITLE6=Billie Holiday, I Didn't Know What Time It Was
TTITLE7=Billy Vaughn, Blue Flame
TTITLE8=Amos Milburn, Let's Rock Awhile
TTITLE9=John Lee Hooker, I'm In The Mood
TTITLE10=Little Richard, Tutti Frutti
TTITLE11=Little Walter, Mean Old World
TTITLE12=Loius Armstrong, Ole Miss Blues
TTITLE13=Muddy Waters, Smokestack Lightnin'
TTITLE14=T-bone Walker, Blues Is A Woman
TTITLE15=Chris Barbers Jazz Band, Sweet Georgia Brown
EXTD=
EXTT0=
EXTT1=
EXTT2=
EXTT3=
EXTT4=
EXTT5=
EXTT6=
EXTT7=
EXTT8=
EXTT9=
EXTT10=
EXTT11=
EXTT12=
EXTT13=
EXTT14=
EXTT15=
PLAYORDER=
